<svg width="129" height="44" viewBox="0 0 129 44" fill="none" xmlns="http://www.w3.org/2000/svg">
<path fill-rule="evenodd" clip-rule="evenodd" d="M22.385 32.0719C23.3525 32.0046 24.3118 31.8481 25.2505 31.6044C26.409 31.9579 27.6336 32.0379 28.8282 31.8381C28.8755 31.8305 28.9234 31.8268 28.9712 31.8271C29.3975 31.8271 29.9571 32.0746 30.7725 32.5971V31.7378C30.7727 31.5891 30.8124 31.4431 30.8875 31.3148C30.9626 31.1865 31.0705 31.0805 31.2001 31.0076C31.5549 30.8069 31.8849 30.5759 32.186 30.3215C33.374 29.315 34.045 27.973 34.045 26.5512C34.045 26.0741 33.9694 25.6108 33.8264 25.168C34.1852 24.4984 34.4754 23.7944 34.6885 23.0642C35.3776 24.0969 35.7468 25.3098 35.75 26.5512C35.75 28.4831 34.8507 30.2844 33.2956 31.6016C33.0361 31.8213 32.7628 32.0243 32.4775 32.2094V34.2183C32.4775 34.9099 31.68 35.3072 31.1176 34.8961C30.5858 34.4986 30.0352 34.1269 29.4676 33.7824C29.3051 33.6851 29.136 33.5992 28.9616 33.5252C28.4941 33.5954 28.0156 33.6311 27.533 33.6311C25.5915 33.6311 23.7971 33.0495 22.385 32.0719ZM12.1193 28.0541C9.66625 25.9737 8.25 23.1399 8.25 20.1025C8.25 13.8971 14.1047 8.9375 21.2534 8.9375C28.4034 8.9375 34.2581 13.8971 34.2581 20.1025C34.2581 26.3092 28.402 31.2689 21.2534 31.2689C20.4504 31.2689 19.6556 31.207 18.8774 31.0833C18.5405 31.163 17.1944 31.9632 15.2542 33.3795C14.5516 33.8937 13.5547 33.3974 13.5547 32.5325V29.106C13.0523 28.7892 12.5727 28.4378 12.1193 28.0541ZM18.9241 28.9699C18.9832 28.9699 19.0437 28.974 19.1029 28.9836C19.8041 29.1019 20.5246 29.1624 21.2534 29.1624C27.2924 29.1624 32.1255 25.0676 32.1255 20.1025C32.1255 15.1388 27.2924 11.044 21.2534 11.044C15.2171 11.044 10.3813 15.1388 10.3813 20.1025C10.3813 22.5033 11.5101 24.7638 13.5066 26.455C14.0085 26.8785 14.5599 27.2635 15.1511 27.599C15.4825 27.786 15.6874 28.1353 15.6874 28.512V30.4879C17.2219 29.458 18.2311 28.9699 18.9241 28.9699ZM15.7107 22.2104C14.7689 22.2104 14.0057 21.4541 14.0057 20.5246C14.0057 19.5938 14.7689 18.8389 15.7107 18.8389C16.6526 18.8389 17.4158 19.5938 17.4158 20.5246C17.4158 21.4555 16.6526 22.2104 15.7107 22.2104ZM21.2534 22.2104C20.3115 22.2104 19.5484 21.4541 19.5484 20.5246C19.5484 19.5938 20.3115 18.8389 21.2534 18.8389C22.1952 18.8389 22.9584 19.5938 22.9584 20.5246C22.9584 21.4555 22.1952 22.2104 21.2534 22.2104ZM26.796 22.2104C25.8541 22.2104 25.091 21.4541 25.091 20.5246C25.091 19.5938 25.8541 18.8389 26.796 18.8389C27.7379 18.8389 28.501 19.5938 28.501 20.5246C28.501 21.4555 27.7379 22.2104 26.796 22.2104Z" fill="white"/>
<path d="M61.668 28.4297C61.0879 28.5352 60.3057 28.5879 59.3213 28.5879C58.3428 28.5879 57.458 28.4531 56.667 28.1836C55.8818 27.9141 55.2051 27.5156 54.6367 26.9883C53.418 25.8574 52.8086 24.2812 52.8086 22.2598C52.8086 20.9414 53.1221 19.7988 53.749 18.832C54.5986 17.5254 55.9023 16.6934 57.6602 16.3359C58.1992 16.2305 58.8408 16.1777 59.585 16.1777C60.335 16.1777 60.9355 16.2188 61.3867 16.3008V17.9795C60.9766 17.8506 60.3408 17.7861 59.4795 17.7861C58.624 17.7861 57.8975 17.8916 57.2998 18.1025C56.7021 18.3135 56.207 18.6152 55.8145 19.0078C55.0293 19.7754 54.6367 20.8594 54.6367 22.2598C54.6367 23.6719 55.0234 24.791 55.7969 25.6172C56.6348 26.5078 57.8389 26.9531 59.4092 26.9531C60.3291 26.9531 61.082 26.8828 61.668 26.7422V28.4297ZM67.9521 20.8008C67.085 20.8008 66.3115 21.0967 65.6318 21.6885V28.5H63.874V15.4219H65.6318V20.4053C66.5811 19.6611 67.5625 19.2891 68.5762 19.2891C69.6602 19.2891 70.4541 19.6113 70.958 20.2559C71.4854 20.9355 71.749 22.0312 71.749 23.543V28.5H69.9912V23.543C69.9912 22.0898 69.5957 21.2227 68.8047 20.9414C68.5527 20.8477 68.2686 20.8008 67.9521 20.8008ZM74.7725 26.8828C74.5791 26.5488 74.4238 26.1562 74.3066 25.7051C74.1953 25.2539 74.1396 24.665 74.1396 23.9385C74.1396 23.2119 74.2949 22.5439 74.6055 21.9346C74.9219 21.3193 75.332 20.8154 75.8359 20.4229C76.8145 19.667 78.0303 19.2891 79.4834 19.2891C80.2393 19.2891 80.8105 19.3066 81.1973 19.3418C81.1973 19.3418 81.4814 19.3711 82.0498 19.4297V28.5H80.4678L80.3975 27.4541C80.0459 27.9229 79.5098 28.2715 78.7891 28.5C78.5137 28.5879 78.2295 28.6318 77.9365 28.6318C77.6494 28.6318 77.3652 28.6025 77.084 28.5439C76.8027 28.4854 76.5215 28.3887 76.2402 28.2539C75.9648 28.1191 75.7012 27.9404 75.4492 27.7178C75.1973 27.4893 74.9717 27.2109 74.7725 26.8828ZM80.292 20.7217C79.917 20.6748 79.542 20.6514 79.167 20.6514C78.7979 20.6514 78.4023 20.7188 77.9805 20.8535C77.5586 20.9824 77.1982 21.1875 76.8994 21.4688C76.2783 22.0547 75.9678 22.9482 75.9678 24.1494C75.9678 25.2861 76.2344 26.127 76.7676 26.6719C77.1719 27.0762 77.6582 27.2783 78.2266 27.2783C78.959 27.2783 79.5625 27.0117 80.0371 26.4785C80.1543 26.3438 80.2393 26.2236 80.292 26.1182V20.7217ZM88.123 27.1113C88.3164 27.1816 88.6094 27.2168 89.002 27.2168C89.3945 27.2168 89.7227 27.1699 89.9863 27.0762V28.4824C89.8633 28.5117 89.6846 28.5293 89.4502 28.5352L88.8965 28.5527C88.7734 28.5527 88.6797 28.5527 88.6152 28.5527C87.4844 28.5527 86.6494 28.1836 86.1104 27.4453C85.6768 26.8477 85.46 26.0566 85.46 25.0723V20.7744H84.1592V19.9482L85.46 19.4297L85.8818 17.1797H87.2178V19.4297H90.0303V20.7744H87.2178V25.0635C87.2178 26.2119 87.5195 26.8945 88.123 27.1113Z" fill="white"/>
<path d="M98.3535 16.2656H106.677V17.7949H100.111V21.3984H105.183V22.875H100.111V28.5H98.3535V16.2656ZM110.922 16.793C110.922 17.127 110.811 17.3848 110.588 17.5664C110.371 17.7422 110.099 17.8301 109.771 17.8301C109.442 17.8301 109.17 17.7422 108.953 17.5664C108.742 17.3848 108.637 17.127 108.637 16.793C108.637 16.4531 108.742 16.1953 108.953 16.0195C109.17 15.8438 109.442 15.7559 109.771 15.7559C110.099 15.7559 110.371 15.8438 110.588 16.0195C110.811 16.1953 110.922 16.4531 110.922 16.793ZM108.865 19.4297H110.623V28.5H108.865V19.4297ZM119.157 21.0381C118.835 20.9443 118.448 20.8975 117.997 20.8975C117.552 20.8975 117.186 20.9443 116.898 21.0381C116.611 21.126 116.359 21.2344 116.143 21.3633C115.744 21.5977 115.454 21.8613 115.272 22.1543V28.5H113.515V19.4297H115.202L115.272 20.6865C115.712 20.1357 116.354 19.7227 117.197 19.4473C117.502 19.3418 117.851 19.2891 118.243 19.2891C118.636 19.2891 118.94 19.3184 119.157 19.377V21.0381ZM125.134 28.6406C121.817 28.6406 120.159 27.0205 120.159 23.7803C120.159 22.3857 120.619 21.2695 121.539 20.4316C122.365 19.6699 123.309 19.2891 124.369 19.2891C125.523 19.2891 126.426 19.6758 127.076 20.4492C127.68 21.1699 127.981 22.1338 127.981 23.3408V24.0264H121.987C121.987 25.6846 122.664 26.6982 124.018 27.0674C124.34 27.1553 124.835 27.1992 125.503 27.1992C126.177 27.1992 126.836 27.1084 127.48 26.9268V28.4121C126.836 28.5645 126.054 28.6406 125.134 28.6406ZM126.224 22.7344C126.224 22.1719 126.068 21.6973 125.758 21.3105C125.395 20.8652 124.894 20.6426 124.255 20.6426C123.581 20.6426 123.033 20.8564 122.611 21.2842C122.225 21.6826 122.031 22.166 122.031 22.7344H126.224Z" fill="#FF7A00"/>
</svg>
